<svg xmlns="http://www.w3.org/2000/svg" xmlns:xlink="http://www.w3.org/1999/xlink" height="800" width="1200" id="svg460" version="1.1" viewBox="-9.92187 -8.8817 85.98954 53.2902"><defs id="defs454"><path id="SVGID_1_" d="M657.8 377.2h604.4v325.7H657.8z"/><path id="SVGID_3_" d="M851.2 378.2h218v204h-218z"/><path id="SVGID_5_" d="M657.8 623h604.4v79.8H657.8z"/></defs><g transform="translate(79.2877 -340.5515)" id="layer1"><g transform="translate(-151.2852 299.1583) scale(.10945)" id="g548" stroke-width="2.4174"><defs id="defs465"><path id="rect561" d="M657.8 377.2h604.4v325.7H657.8z"/></defs><clipPath id="SVGID_2_"><use height="100%" width="100%" y="0" x="0" xlink:href="#SVGID_1_" id="use467" overflow="visible"/></clipPath><g clip-path="url(#SVGID_2_)" id="g546" stroke-width="2.4174"><g id="g488"><defs id="defs471"><path id="rect566" d="M851.2 378.2h218v204h-218z"/></defs><clipPath id="SVGID_4_"><use height="100%" width="100%" y="0" x="0" xlink:href="#SVGID_3_" id="use473" overflow="visible"/></clipPath><g clip-path="url(#SVGID_4_)" id="g486" stroke-width="2.4174"><path class="st2" d="M947.7 402.1l-32.8 164c-1.9 9.3-10.1 16.1-19.6 16.1-12.6 0-22.1-11.5-19.6-23.9l32.8-164c1.9-9.3 10.1-16.1 19.6-16.1 12.6 0 22.1 11.5 19.6 23.9z" id="path476" fill="#005aab" stroke-width="2.4174"/><path class="st2" d="M1039.5 453.1l-22.6 113c-1.9 9.3-10.1 16.1-19.6 16.1-12.6 0-22.1-11.5-19.6-23.9l22.6-113c1.9-9.3 10.1-16.1 19.6-16.1 12.6 0 22.1 11.5 19.6 23.9z" id="path478" fill="#005aab" stroke-width="2.4174"/><circle cx="1048.8" cy="561.8" r="20.4" id="circle480" fill="#ffb81a" stroke-width="2.4174"/><circle class="st4" cx="1030.1" cy="398.7" r="20.4" id="circle482" fill="#eb2a2e" stroke-width="2.4174"/><path class="st4" d="M871 459.8h91.8c12.6 0 22.1 11.5 19.6 23.9l-.2.8c-1.9 9.3-10.1 16.1-19.6 16.1h-91.8c-12.6 0-22.1-11.5-19.6-23.9l.2-.8c1.8-9.4 10-16.1 19.6-16.1z" id="path484" fill="#eb2a2e" stroke-width="2.4174"/></g></g><g id="g544"><defs id="defs491"><path id="rect578" d="M657.8 623h604.4v79.8H657.8z"/></defs><clipPath id="SVGID_6_"><use height="100%" width="100%" y="0" x="0" xlink:href="#SVGID_5_" id="use493" overflow="visible"/></clipPath><g clip-path="url(#SVGID_6_)" id="g542" stroke-width="2.4174"><g id="g498"><path class="st6" d="M675.3 694.2c-.3 2.4-1.5 4.5-3.5 6.2-3.8 3.2-9.4 3.2-12.2-.1-1.4-1.6-2-3.8-1.7-6.1l8.8-62.5c.3-2.3 1.5-4.4 3.3-6.1 3.8-3.4 9.5-3.4 12.4-.1 1.4 1.7 2 3.8 1.7 6.2z" id="path496" fill="#252525" stroke-width="2.4174"/></g><g id="g502"><path class="st6" d="M722.8 694.2c-.3 2.4-1.5 4.5-3.5 6.2-3.8 3.2-9.4 3.2-12.2-.1-1.4-1.6-2-3.8-1.7-6.1l8.8-62.5c.3-2.3 1.5-4.4 3.3-6.1 3.8-3.4 9.5-3.4 12.4-.1 1.4 1.7 2 3.8 1.7 6.2z" id="path500" fill="#252525" stroke-width="2.4174"/></g><g id="g506"><path class="st6" d="M698.1 654.2c2.4 0 4.4.9 5.8 2.6 2.7 3.3 1.9 9-1.8 12.2-1.9 1.6-4.1 2.5-6.5 2.5h-25.9c-2.3 0-4.3-.8-5.8-2.4-2.9-3.3-2.1-9 1.7-12.4 1.9-1.7 4.2-2.6 6.5-2.6h26z" id="path504" fill="#252525" stroke-width="2.4174"/></g><g id="g510"><path class="st6" d="M782.4 702.3h-40.6c-2.4 0-4.4-.9-5.8-2.5-1.4-1.6-2-3.8-1.7-6.1l8.6-61.4c.3-2.3 1.5-4.5 3.3-6.1 1.9-1.7 4.1-2.6 6.5-2.6h40.6c2.3 0 4.2.9 5.6 2.5 1.4 1.6 1.9 3.7 1.6 6-.3 2.3-1.5 4.4-3.4 6-1.8 1.5-4 2.4-6.2 2.4h-31.8l-2 14.2h28.2c2.3 0 4.2.8 5.6 2.4 1.4 1.6 2 3.7 1.6 6-.3 2.3-1.5 4.4-3.4 6-1.8 1.5-4 2.3-6.2 2.3h-28.2l-2 14.3h31.8c2.3 0 4.2.9 5.6 2.5 1.4 1.6 1.9 3.7 1.6 6-.3 2.3-1.5 4.4-3.4 6-1.5 1.3-3.7 2.1-5.9 2.1z" id="path508" fill="#252525" stroke-width="2.4174"/></g><g id="g514"><path class="st6" d="M859.1 702.8c-2.8 0-5.1-1.3-6.4-3.6l-15.1-23-21.4 23.2c-2.7 2.8-5.4 3.4-7.2 3.4-2.2 0-4.1-.9-5.5-2.5-1.4-1.6-1.9-3.6-1.6-5.9.3-2 1.1-3.8 2.5-5.3l25.1-26.3-17.4-26c-1-1.7-1.3-3.4-1.1-5.4.3-2.4 1.5-4.5 3.3-6.1 2.9-2.5 7.1-3.2 10.2-1.5 1.2.6 2.1 1.5 2.7 2.5l14.9 23 21.4-23.2c2.9-3.6 9.5-4.3 12.6-.8 1.5 1.6 2 3.7 1.7 6-.3 1.8-1 3.5-2.3 4.9l-25.2 26.5 17.6 26.2c1 1.3 1.4 3.1 1.1 5.2-.3 2.3-1.5 4.4-3.3 6.1-1.9 1.8-4.1 2.6-6.6 2.6z" id="path512" fill="#252525" stroke-width="2.4174"/></g><g id="g518"><path class="st6" d="M938.5 702.8c-1.7 0-3.3-.5-4.6-1.4-1.3-1-2.2-2.2-2.7-3.8l-3.7-13.4h-29l-7.4 13.3c-1 1.7-2.3 3-3.8 3.9-3.9 2.3-8.5 1.7-10.9-1.1-1.3-1.6-1.9-3.7-1.5-6.1.2-1.1.6-2.3 1.3-3.6l34.4-61c1.1-1.9 2.5-3.4 4.1-4.6 1.9-1.4 4.1-2 6.4-2h1c2.4 0 4.3.7 5.8 2 1.3 1.2 2.3 2.7 2.8 4.5l17.3 61c.4 1.3.5 2.5.3 3.6-.3 2.3-1.5 4.4-3.2 6.1-1.8 1.8-4.1 2.6-6.6 2.6zm-30.7-35.1h15.1l-5-18.2z" id="path516" fill="#252525" stroke-width="2.4174"/></g><g id="g522"><path class="st6" d="M1017.2 702.8c-2.2 0-4.3-.7-5.9-2.1-1.6-1.4-2.6-3.2-3-5.4l-6.9-39.2-17.9 39.3c-.9 2.1-2.5 3.9-4.5 5.3-4 2.8-9.1 2.7-12.2.1-1.5-1.3-2.5-3-3-5.3l-11.3-61.1c-.2-1.2-.2-2.2-.1-3 .2-2.2 1.3-4.4 3.2-6.1 3.3-2.9 8.7-3.3 11.7-.5 1.2 1.2 2 2.7 2.4 4.5l7.1 43.1 19.2-42.9c.8-1.9 2.3-3.6 4.1-4.9 3.7-2.5 8.4-2.4 11.4 0 1.5 1.2 2.5 3 2.8 4.9l7.2 42.9 19.2-43.1c.8-1.9 2.1-3.4 3.7-4.6 3.7-2.8 9-2.4 11.5.5 1.4 1.7 1.9 3.8 1.5 6.3-.1.6-.4 1.5-.8 2.6l-28.5 61.1c-1.2 2.4-2.7 4.1-4.6 5.4-2 1.6-4.1 2.2-6.3 2.2z" id="path520" fill="#252525" stroke-width="2.4174"/></g><g id="g526"><path class="st6" d="M1107.1 702.8c-1.7 0-3.3-.5-4.6-1.4-1.3-1-2.2-2.2-2.7-3.8l-3.7-13.4h-29l-7.4 13.3c-1 1.7-2.3 3-3.8 3.9-3.9 2.3-8.5 1.7-10.9-1.1-1.3-1.6-1.9-3.7-1.5-6.1.2-1.1.6-2.3 1.3-3.6l34.4-61c1.1-1.9 2.5-3.4 4.1-4.6 1.9-1.4 4.1-2 6.4-2h1c2.4 0 4.3.7 5.8 2 1.3 1.2 2.3 2.7 2.8 4.5l17.3 61c.4 1.3.5 2.5.3 3.6-.3 2.3-1.5 4.4-3.2 6.1-1.9 1.8-4.2 2.6-6.6 2.6zm-30.8-35.1h15.1l-5-18.2z" id="path524" fill="#252525" stroke-width="2.4174"/></g><g id="g536"><g id="g530"><path class="st6" d="M1177.6 702.8c-2.8 0-5.1-1.3-6.4-3.6l-25.5-40.3 20.3-.2 20.4 30.3c.6.8 1.5 2.6 1.1 5.2-.3 2.3-1.5 4.4-3.2 6.1-1.9 1.7-4.2 2.5-6.7 2.5z" id="path528" fill="#252525" stroke-width="2.4174"/></g><g id="g534"><path class="st6" d="M1131.1 702.8c-2.4 0-4.4-.9-5.8-2.5-1.4-1.6-2-3.8-1.6-6.1l8.7-61.9c.3-2.3 1.5-4.5 3.3-6.1 1.9-1.7 4.1-2.6 6.5-2.6h23.6c10.1 0 17.6 2.2 22.3 6.6 4.9 4.6 6.9 10.6 5.8 18-.9 6.3-5.9 26.7-33.3 26.7h-16.9l-2.7 19.4c-.3 2.4-1.5 4.5-3.5 6.2-1.9 1.5-4.1 2.3-6.4 2.3zm15-44.9h14.2c5 0 9-.9 11.9-2.7 2.5-1.5 3.8-3.5 4.2-6.3.4-2.7-.2-4.6-1.9-6-1.4-1.1-4.6-2.4-12.3-2.4h-13.7z" id="path532" fill="#252525" stroke-width="2.4174"/></g></g><g id="g540"><path class="st6" d="M1243.8 702.3h-40.6c-2.4 0-4.4-.9-5.8-2.5-1.4-1.6-2-3.8-1.6-6.1l8.6-61.4c.3-2.3 1.5-4.5 3.3-6.1 1.9-1.7 4.2-2.6 6.6-2.6h40.6c2.3 0 4.2.9 5.6 2.5 1.4 1.6 1.9 3.7 1.6 6-.3 2.3-1.5 4.4-3.4 6-1.8 1.5-4 2.4-6.2 2.4h-31.9l-2 14.2h28.2c2.3 0 4.2.8 5.6 2.4 1.4 1.6 2 3.7 1.6 6-.3 2.3-1.5 4.4-3.4 6-1.8 1.5-4 2.3-6.2 2.3h-28.2l-2 14.3h31.9c2.3 0 4.2.9 5.6 2.5 1.4 1.6 1.9 3.7 1.6 6-.3 2.3-1.5 4.4-3.4 6-1.7 1.3-3.8 2.1-6.1 2.1z" id="path538" fill="#252525" stroke-width="2.4174"/></g></g></g></g></g></g><style type="text/css" id="style462">.st2{fill:#005aab}.st4{fill:#eb2a2e}.st6{fill:#252525}</style></svg>